<svg width="45" height="45" viewBox="0 0 45 45" fill="none" xmlns="http://www.w3.org/2000/svg">
<g id="Instagram">
<path id="Vector" d="M22.5512 0H22.4488C10.0507 0 0 10.0507 0 22.4488V22.5512C0 34.9493 10.0507 45 22.4488 45H22.5512C34.9493 45 45 34.9493 45 22.5512V22.4488C45 10.0507 34.9493 0 22.5512 0Z" fill="url(#paint0_linear_74_29)"/>
<g id="Group">
<path id="Vector_2" d="M29.4629 9.15514H15.5387C11.6919 9.15514 8.56238 12.2846 8.56238 16.1315V28.8701C8.56238 32.717 11.6919 35.8464 15.5387 35.8464H29.4629C33.3098 35.8464 36.4393 32.717 36.4393 28.8701V16.1315C36.4393 12.2846 33.3098 9.15514 29.4629 9.15514ZM11.0234 16.1315C11.0234 13.6421 13.0493 11.6162 15.5387 11.6162H29.4629C31.9523 11.6162 33.9782 13.6421 33.9782 16.1315V28.8701C33.9782 31.3595 31.9523 33.3854 29.4629 33.3854H15.5387C13.0493 33.3854 11.0234 31.3595 11.0234 28.8701V16.1315Z" fill="white"/>
<path id="Vector_3" d="M22.5009 28.9884C26.0781 28.9884 28.99 26.078 28.99 22.4992C28.99 18.9204 26.0797 16.01 22.5009 16.01C18.9221 16.01 16.0117 18.9204 16.0117 22.4992C16.0117 26.078 18.9221 28.9884 22.5009 28.9884ZM22.5009 18.4726C24.7223 18.4726 26.529 20.2794 26.529 22.5008C26.529 24.7222 24.7223 26.5289 22.5009 26.5289C20.2795 26.5289 18.4727 24.7222 18.4727 22.5008C18.4727 20.2794 20.2795 18.4726 22.5009 18.4726Z" fill="white"/>
<path id="Vector_4" d="M29.5907 17.0584C30.554 17.0584 31.3391 16.2749 31.3391 15.31C31.3391 14.3452 30.5556 13.5616 29.5907 13.5616C28.6258 13.5616 27.8423 14.3452 27.8423 15.31C27.8423 16.2749 28.6258 17.0584 29.5907 17.0584Z" fill="white"/>
</g>
</g>
<defs>
<linearGradient id="paint0_linear_74_29" x1="6.57429" y1="38.4257" x2="38.4257" y2="6.57587" gradientUnits="userSpaceOnUse">
<stop stop-color="#FAAD4F"/>
<stop offset="0.35" stop-color="#DD2A7B"/>
<stop offset="0.62" stop-color="#9537B0"/>
<stop offset="1" stop-color="#515BD4"/>
</linearGradient>
</defs>
</svg>
