<svg width="45" height="45" viewBox="0 0 45 45" fill="none" xmlns="http://www.w3.org/2000/svg">
<g id="Phone">
<circle id="Ellipse 9" cx="22.5" cy="22.5" r="22.5" fill="url(#paint0_linear_71_87)"/>
<path id="Vector" fill-rule="evenodd" clip-rule="evenodd" d="M12.9248 17.9241C11.5312 14.5555 11 11.8398 11 10.0056C11 8.17132 11.338 7.64524 11.681 7.22026C12.0239 6.79524 13.5705 5.52393 13.834 5.28679C14.0975 5.0497 15.1033 4.58894 15.734 5.79863C16.3647 7.00835 17.5523 9.43719 18.3712 11.0507C19.6561 13.3361 18.6324 14.3394 18.3018 14.9407C17.6933 16.0472 17.343 16.3201 17.343 17.6788C17.343 19.0375 20.1909 22.8976 20.8719 23.8487C21.5477 24.7926 24.3853 28.1094 25.2646 28.2868C26.1501 28.4654 27.3355 27.2154 27.5875 26.8985C28.8697 25.586 29.5934 26.581 30.184 27.0135C30.7746 27.4461 33.4429 29.663 34.2698 30.4103C35.2657 31.3666 34.6956 32.9556 34.1054 34.2038C33.7007 35.0597 33.2919 35.9237 33.1997 36.1168C32.9565 36.5924 32.3728 37 31.0595 37C29.7462 37 28.343 36.6802 25.0083 34.2349C22.2797 32.234 19.6786 29.1009 18.3166 27.2666C16.9061 25.4324 14.5166 21.7719 12.9248 17.9241Z" fill="white"/>
</g>
<defs>
<linearGradient id="paint0_linear_71_87" x1="22.5" y1="0" x2="22.5" y2="45" gradientUnits="userSpaceOnUse">
<stop stop-color="#64FA7E"/>
<stop offset="1" stop-color="#0CBA29"/>
</linearGradient>
</defs>
</svg>
